<?xml version="1.0" encoding="utf-8"?>
<!-- Generator: Adobe Illustrator 23.0.1, SVG Export Plug-In . SVG Version: 6.00 Build 0)  -->
<svg version="1.1" id="Layer_1" xmlns="http://www.w3.org/2000/svg" xmlns:xlink="http://www.w3.org/1999/xlink" x="0px" y="0px"
	 viewBox="0 0 384 512" style="enable-background:new 0 0 384 512;" xml:space="preserve">
<style type="text/css">
	.st0{fill:#FFFFFF;}
</style>
<path class="st0" d="M192,96c-52.9,0-96,43.1-96,96s43.1,96,96,96s96-43.1,96-96S244.9,96,192,96z M192,256c-35.3,0-64-28.7-64-64
	s28.7-64,64-64s64,28.7,64,64S227.3,256,192,256z M192,0C86,0,0,86,0,192c0,77.4,27,99,172.3,309.7c9.5,13.8,29.9,13.8,39.5,0
	C357,291,384,269.4,384,192C384,86,298,0,192,0z M192,473.9C52.7,272.5,32,256.5,32,192c0-42.7,16.6-82.9,46.9-113.1
	S149.3,32,192,32s82.9,16.6,113.1,46.9S352,149.3,352,192C352,256.5,331.3,272.5,192,473.9z"/>
</svg>
